IKResults
version=1
nRows=8
nColumns=40
inDegrees=yes

Units are S.I. units (second, meters, Newtons, ...)
Angles are in degrees.

endheader
time	pelvis_tilt	pelvis_list	pelvis_rotation	pelvis_tx	pelvis_ty	pelvis_tz	hip_flexion_r	hip_adduction_r	hip_rotation_r	knee_angle_r	knee_angle_r_beta	ankle_angle_r	subtalar_angle_r	mtp_angle_r	hip_flexion_l	hip_adduction_l	hip_rotation_l	knee_angle_l	knee_angle_l_beta	ankle_angle_l	subtalar_angle_l	mtp_angle_l	lumbar_extension	lumbar_bending	lumbar_rotation	arm_flex_r	arm_add_r	arm_rot_r	elbow_flex_r	pro_sup_r	wrist_flex_r	wrist_dev_r	arm_flex_l	arm_add_l	arm_rot_l	elbow_flex_l	pro_sup_l	wrist_flex_l	wrist_dev_l
      1.66000000	     18.41819778	     -2.65231338	      1.66547708	     -0.26580355	      0.95201931	      0.98257761	     -1.41738486	     -0.76953561	    -11.95539213	    -31.48877879	     -0.54958287	      8.96086955	     -9.75558276	     14.69306463	    -23.31764868	      0.22194488	     19.68398076	     -8.36350944	     -0.14597078	      8.43973568	     -7.09289977	     -5.71912599	    -24.48051364	      2.47414571	     -2.62270464	     -1.05199284	     -9.84603770	      2.82886609	     17.53961061	     89.95437384	      0.00000000	      0.00000000	     12.33978097	     11.27270420	      0.23520825	     30.50714817	     89.95437384	      0.00000000	      0.00000000
      1.67000000	     18.33140934	     -2.84713503	      1.67514569	     -0.26101635	      0.95169097	      0.98215598	     -0.90389920	     -0.53013983	    -12.48791101	    -30.02112245	     -0.52396743	      8.24332519	     -8.19068116	     14.06487626	    -23.50460936	      0.39444369	     19.60211696	     -8.44862791	     -0.14745637	      8.75021271	     -6.95619893	     -5.76601476	    -24.45960777	      2.71874349	     -2.65846195	     -1.20465435	     -9.89327512	      2.60905143	     17.32774696	     89.95437384	      0.00000000	      0.00000000	     12.57929386	     11.19737227	      0.05570448	     31.21543957	     89.95437384	      0.00000000	      0.00000000
      1.68000000	     18.34078396	     -3.03183407	      1.93582563	     -0.25587412	      0.95146709	      0.98151669	     -0.66235888	     -0.34947883	    -13.56585745	    -28.40656673	     -0.49578812	      7.50735158	     -6.06075849	     12.98154009	    -23.73282590	      0.67870368	     19.36023436	     -8.69337403	     -0.15172800	      8.99166925	     -6.74544130	     -5.81246590	    -24.46989099	      3.02364157	     -2.92915477	     -1.45296611	     -9.92007663	      2.22554889	     17.20720090	     89.95437384	      0.00000000	      0.00000000	     12.73309652	     11.20329821	     -0.28968057	     31.93338615	     89.95437384	      0.00000000	      0.00000000
      1.69000000	     18.28948780	     -3.22467073	      1.99320167	     -0.25102049	      0.95112867	      0.98113288	     -0.27955315	     -0.14247967	    -14.37266139	    -26.87404761	     -0.46904061	      6.75714013	     -4.12833147	     12.00015063	    -23.88177630	      0.88356393	     19.21830156	     -8.92092275	     -0.15569947	      9.24714800	     -6.47992747	     -5.83643953	    -24.49159627	      3.27575452	     -2.99339012	     -1.60290783	     -9.96624302	      1.98284170	     17.00888458	     89.95437384	      0.00000000	      0.00000000	     12.91639632	     11.17569151	     -0.56634953	     32.69324811	     89.95437384	      0.00000000	      0.00000000
      1.70000000	     18.15215957	     -3.38099796	      1.97784687	     -0.24618930	      0.95061400	      0.98088641	      0.22087704	      0.06967433	    -14.91962062	    -25.44658071	     -0.44412662	      5.82281165	     -2.46916784	     11.42473946	    -23.93713326	      1.01819525	     19.06869015	     -9.16738962	     -0.16000113	      9.61302274	     -6.24555111	     -5.83794913	    -24.40711080	      3.45609123	     -3.03738140	     -1.71418328	    -10.01928688	      1.89578479	     16.74107957	     89.95437384	      0.00000000	      0.00000000	     13.11804058	     11.13549813	     -0.78486607	     33.26331749	     89.95437384	      0.00000000	      0.00000000
      1.71000000	     18.24631652	     -3.58603437	      2.28657317	     -0.24074362	      0.95037032	      0.98035996	      0.29228188	      0.28929028	    -16.15299585	    -23.90634778	     -0.41724448	      5.20684084	     -0.28817677	     10.24343057	    -24.24410498	      1.35718055	     18.72098850	     -9.44160138	     -0.16478703	      9.86363456	     -6.03592869	     -5.93026383	    -24.48155909	      3.79566434	     -3.21835202	     -2.06002837	    -10.07584072	      1.59420193	     16.67572332	     89.95437384	      0.00000000	      0.00000000	     13.21836398	     11.08317061	     -1.11759127	     34.01865400	     89.95437384	      0.00000000	      0.00000000
      1.72000000	     18.25110357	     -3.83236682	      2.44611949	     -0.23562014	      0.94998463	      0.97999832	      0.47973922	      0.59817309	    -17.01943387	    -22.37762914	     -0.39056331	      4.56260485	      1.77631998	      9.33466560	    -24.46076120	      1.66704396	     18.64192142	     -9.66082736	     -0.16861325	     10.25411224	     -5.69807469	     -6.00933231	    -24.53055034	      4.14790390	     -3.41888565	     -2.13693318	    -10.12092638	      1.29777043	     16.43015653	     89.95437384	      0.00000000	      0.00000000	     13.35653832	     11.05035379	     -1.26770415	     34.55665286	     89.95437384	      0.00000000	      0.00000000
      1.73000000	     18.18903118	     -3.74211225	      2.66324832	     -0.23018530	      0.94934813	      0.97932154	      0.82624598	      0.29255004	    -18.85364732	    -21.11089008	     -0.36845454	      2.68035308	      3.81805392	     -3.10014121	    -24.75609588	      1.53318321	     17.71253164	     -9.57734829	     -0.16715626	     10.56466372	     -4.48392178	     -7.01379126	    -24.44876547	      4.17203000	     -3.70896114	     -2.38587608	    -10.14379460	      1.00740408	     16.33410553	     89.95437384	      0.00000000	      0.00000000	     13.45401982	     11.05764566	     -1.63977850	     35.13577201	     89.95437384	      0.00000000	      0.00000000
